<mxfile host="app.diagrams.net" modified="2022-05-14T14:48:18.440Z" agent="5.0 (Windows NT 10.0; Win64; x64) AppleWebKit/537.36 (KHTML, like Gecko) Chrome/101.0.4951.54 Safari/537.36" etag="84GXexcupcZjTD-89OCX" version="18.0.3" type="github">
  <diagram id="jR5MKKfHQDHxsoliVBKJ" name="Page-1">
    <mxGraphModel dx="1038" dy="539" grid="1" gridSize="10" guides="1" tooltips="1" connect="1" arrows="1" fold="1" page="1" pageScale="1" pageWidth="827" pageHeight="1169" math="0" shadow="0">
      <root>
        <mxCell id="0" />
        <mxCell id="1" parent="0" />
        <mxCell id="qhTGVoRqfC-M4U4o0FZF-1" value="Proceso inventarios - Recibo de material" style="swimlane;childLayout=stackLayout;resizeParent=1;resizeParentMax=0;startSize=20;horizontal=0;horizontalStack=1;" vertex="1" parent="1">
          <mxGeometry x="40" y="20" width="770" height="1140" as="geometry" />
        </mxCell>
        <mxCell id="qhTGVoRqfC-M4U4o0FZF-2" value="Proveedor" style="swimlane;startSize=20;" vertex="1" parent="qhTGVoRqfC-M4U4o0FZF-1">
          <mxGeometry x="20" width="250" height="1140" as="geometry" />
        </mxCell>
        <mxCell id="qhTGVoRqfC-M4U4o0FZF-21" value="Inicio" style="ellipse;whiteSpace=wrap;html=1;" vertex="1" parent="qhTGVoRqfC-M4U4o0FZF-2">
          <mxGeometry x="68.75" y="40" width="112.5" height="80" as="geometry" />
        </mxCell>
        <mxCell id="qhTGVoRqfC-M4U4o0FZF-25" value="" style="edgeStyle=orthogonalEdgeStyle;rounded=0;orthogonalLoop=1;jettySize=auto;html=1;" edge="1" parent="qhTGVoRqfC-M4U4o0FZF-2" source="qhTGVoRqfC-M4U4o0FZF-22" target="qhTGVoRqfC-M4U4o0FZF-24">
          <mxGeometry relative="1" as="geometry" />
        </mxCell>
        <mxCell id="qhTGVoRqfC-M4U4o0FZF-22" value="Llegada de mercancía" style="whiteSpace=wrap;html=1;" vertex="1" parent="qhTGVoRqfC-M4U4o0FZF-2">
          <mxGeometry x="65" y="160" width="120" height="60" as="geometry" />
        </mxCell>
        <mxCell id="qhTGVoRqfC-M4U4o0FZF-23" value="" style="edgeStyle=orthogonalEdgeStyle;rounded=0;orthogonalLoop=1;jettySize=auto;html=1;" edge="1" parent="qhTGVoRqfC-M4U4o0FZF-2" source="qhTGVoRqfC-M4U4o0FZF-21" target="qhTGVoRqfC-M4U4o0FZF-22">
          <mxGeometry relative="1" as="geometry" />
        </mxCell>
        <mxCell id="qhTGVoRqfC-M4U4o0FZF-24" value="Entrega OC y copia de factura" style="shape=document;whiteSpace=wrap;html=1;boundedLbl=1;" vertex="1" parent="qhTGVoRqfC-M4U4o0FZF-2">
          <mxGeometry x="65" y="270" width="120" height="80" as="geometry" />
        </mxCell>
        <mxCell id="qhTGVoRqfC-M4U4o0FZF-34" value="Se notifica el rechazo por incumplimiento" style="whiteSpace=wrap;html=1;" vertex="1" parent="qhTGVoRqfC-M4U4o0FZF-2">
          <mxGeometry x="68.75" y="485" width="120" height="60" as="geometry" />
        </mxCell>
        <mxCell id="qhTGVoRqfC-M4U4o0FZF-54" value="" style="edgeStyle=orthogonalEdgeStyle;rounded=0;orthogonalLoop=1;jettySize=auto;html=1;" edge="1" parent="qhTGVoRqfC-M4U4o0FZF-2" source="qhTGVoRqfC-M4U4o0FZF-50" target="qhTGVoRqfC-M4U4o0FZF-34">
          <mxGeometry relative="1" as="geometry" />
        </mxCell>
        <mxCell id="qhTGVoRqfC-M4U4o0FZF-50" value="1" style="ellipse;whiteSpace=wrap;html=1;aspect=fixed;" vertex="1" parent="qhTGVoRqfC-M4U4o0FZF-2">
          <mxGeometry x="103.75" y="580" width="50" height="50" as="geometry" />
        </mxCell>
        <mxCell id="qhTGVoRqfC-M4U4o0FZF-3" value="Jefe almacén" style="swimlane;startSize=20;" vertex="1" parent="qhTGVoRqfC-M4U4o0FZF-1">
          <mxGeometry x="270" width="250" height="1140" as="geometry" />
        </mxCell>
        <mxCell id="qhTGVoRqfC-M4U4o0FZF-31" value="" style="edgeStyle=orthogonalEdgeStyle;rounded=0;orthogonalLoop=1;jettySize=auto;html=1;" edge="1" parent="qhTGVoRqfC-M4U4o0FZF-3" source="qhTGVoRqfC-M4U4o0FZF-28" target="qhTGVoRqfC-M4U4o0FZF-30">
          <mxGeometry relative="1" as="geometry" />
        </mxCell>
        <mxCell id="qhTGVoRqfC-M4U4o0FZF-28" value="Verificar documentos" style="whiteSpace=wrap;html=1;" vertex="1" parent="qhTGVoRqfC-M4U4o0FZF-3">
          <mxGeometry x="65" y="170" width="120" height="60" as="geometry" />
        </mxCell>
        <mxCell id="qhTGVoRqfC-M4U4o0FZF-30" value="¿Corresponden?" style="rhombus;whiteSpace=wrap;html=1;" vertex="1" parent="qhTGVoRqfC-M4U4o0FZF-3">
          <mxGeometry x="77.5" y="330" width="95" height="90" as="geometry" />
        </mxCell>
        <mxCell id="qhTGVoRqfC-M4U4o0FZF-41" value="" style="edgeStyle=orthogonalEdgeStyle;rounded=0;orthogonalLoop=1;jettySize=auto;html=1;" edge="1" parent="qhTGVoRqfC-M4U4o0FZF-3" source="qhTGVoRqfC-M4U4o0FZF-32" target="qhTGVoRqfC-M4U4o0FZF-39">
          <mxGeometry relative="1" as="geometry" />
        </mxCell>
        <mxCell id="qhTGVoRqfC-M4U4o0FZF-32" value="Descarga y ubicación de mercancía en área de recepción" style="whiteSpace=wrap;html=1;" vertex="1" parent="qhTGVoRqfC-M4U4o0FZF-3">
          <mxGeometry x="65" y="485" width="120" height="60" as="geometry" />
        </mxCell>
        <mxCell id="qhTGVoRqfC-M4U4o0FZF-33" value="SI" style="edgeStyle=orthogonalEdgeStyle;rounded=0;orthogonalLoop=1;jettySize=auto;html=1;" edge="1" parent="qhTGVoRqfC-M4U4o0FZF-3" source="qhTGVoRqfC-M4U4o0FZF-30" target="qhTGVoRqfC-M4U4o0FZF-32">
          <mxGeometry relative="1" as="geometry" />
        </mxCell>
        <mxCell id="qhTGVoRqfC-M4U4o0FZF-43" value="NO" style="edgeStyle=orthogonalEdgeStyle;rounded=0;orthogonalLoop=1;jettySize=auto;html=1;" edge="1" parent="qhTGVoRqfC-M4U4o0FZF-3" source="qhTGVoRqfC-M4U4o0FZF-39" target="qhTGVoRqfC-M4U4o0FZF-42">
          <mxGeometry relative="1" as="geometry" />
        </mxCell>
        <mxCell id="qhTGVoRqfC-M4U4o0FZF-39" value="¿Necesita revisión técnica?" style="rhombus;whiteSpace=wrap;html=1;" vertex="1" parent="qhTGVoRqfC-M4U4o0FZF-3">
          <mxGeometry x="73.75" y="580" width="102.5" height="100" as="geometry" />
        </mxCell>
        <mxCell id="qhTGVoRqfC-M4U4o0FZF-60" value="" style="edgeStyle=orthogonalEdgeStyle;rounded=0;orthogonalLoop=1;jettySize=auto;html=1;" edge="1" parent="qhTGVoRqfC-M4U4o0FZF-3" source="qhTGVoRqfC-M4U4o0FZF-42" target="qhTGVoRqfC-M4U4o0FZF-59">
          <mxGeometry relative="1" as="geometry" />
        </mxCell>
        <mxCell id="qhTGVoRqfC-M4U4o0FZF-42" value="Verifica cuantitativamente la mercancía" style="whiteSpace=wrap;html=1;" vertex="1" parent="qhTGVoRqfC-M4U4o0FZF-3">
          <mxGeometry x="65" y="740" width="120" height="60" as="geometry" />
        </mxCell>
        <mxCell id="qhTGVoRqfC-M4U4o0FZF-64" value="SI" style="edgeStyle=orthogonalEdgeStyle;rounded=0;orthogonalLoop=1;jettySize=auto;html=1;" edge="1" parent="qhTGVoRqfC-M4U4o0FZF-3" source="qhTGVoRqfC-M4U4o0FZF-59" target="qhTGVoRqfC-M4U4o0FZF-63">
          <mxGeometry relative="1" as="geometry" />
        </mxCell>
        <mxCell id="qhTGVoRqfC-M4U4o0FZF-59" value="¿La cantidad es correcta?" style="rhombus;whiteSpace=wrap;html=1;" vertex="1" parent="qhTGVoRqfC-M4U4o0FZF-3">
          <mxGeometry x="73.75" y="840" width="102.5" height="100" as="geometry" />
        </mxCell>
        <mxCell id="qhTGVoRqfC-M4U4o0FZF-66" value="" style="edgeStyle=orthogonalEdgeStyle;rounded=0;orthogonalLoop=1;jettySize=auto;html=1;" edge="1" parent="qhTGVoRqfC-M4U4o0FZF-3" source="qhTGVoRqfC-M4U4o0FZF-63" target="qhTGVoRqfC-M4U4o0FZF-65">
          <mxGeometry relative="1" as="geometry" />
        </mxCell>
        <mxCell id="qhTGVoRqfC-M4U4o0FZF-63" value="Aceptación de mercancía y comunica al proveedor" style="whiteSpace=wrap;html=1;" vertex="1" parent="qhTGVoRqfC-M4U4o0FZF-3">
          <mxGeometry x="65" y="980" width="120" height="60" as="geometry" />
        </mxCell>
        <mxCell id="qhTGVoRqfC-M4U4o0FZF-65" value="Registro de entrada de mercancías" style="shape=document;whiteSpace=wrap;html=1;boundedLbl=1;" vertex="1" parent="qhTGVoRqfC-M4U4o0FZF-3">
          <mxGeometry x="65" y="1060" width="120" height="80" as="geometry" />
        </mxCell>
        <mxCell id="qhTGVoRqfC-M4U4o0FZF-4" value="Auxiliar de calidad" style="swimlane;startSize=20;" vertex="1" parent="qhTGVoRqfC-M4U4o0FZF-1">
          <mxGeometry x="520" width="250" height="1140" as="geometry" />
        </mxCell>
        <mxCell id="qhTGVoRqfC-M4U4o0FZF-44" value="Hace inspección de especificaciones técnicas" style="whiteSpace=wrap;html=1;" vertex="1" parent="qhTGVoRqfC-M4U4o0FZF-4">
          <mxGeometry x="65" y="170" width="120" height="60" as="geometry" />
        </mxCell>
        <mxCell id="qhTGVoRqfC-M4U4o0FZF-51" value="NO" style="edgeStyle=orthogonalEdgeStyle;rounded=0;orthogonalLoop=1;jettySize=auto;html=1;entryX=0.5;entryY=0;entryDx=0;entryDy=0;" edge="1" parent="qhTGVoRqfC-M4U4o0FZF-4" source="qhTGVoRqfC-M4U4o0FZF-47" target="qhTGVoRqfC-M4U4o0FZF-49">
          <mxGeometry relative="1" as="geometry">
            <Array as="points">
              <mxPoint x="218" y="370" />
            </Array>
          </mxGeometry>
        </mxCell>
        <mxCell id="qhTGVoRqfC-M4U4o0FZF-47" value="¿Cumple con especificaciones?" style="rhombus;whiteSpace=wrap;html=1;" vertex="1" parent="qhTGVoRqfC-M4U4o0FZF-4">
          <mxGeometry x="76.25" y="320" width="97.5" height="100" as="geometry" />
        </mxCell>
        <mxCell id="qhTGVoRqfC-M4U4o0FZF-48" value="" style="edgeStyle=orthogonalEdgeStyle;rounded=0;orthogonalLoop=1;jettySize=auto;html=1;" edge="1" parent="qhTGVoRqfC-M4U4o0FZF-4" source="qhTGVoRqfC-M4U4o0FZF-44" target="qhTGVoRqfC-M4U4o0FZF-47">
          <mxGeometry relative="1" as="geometry" />
        </mxCell>
        <mxCell id="qhTGVoRqfC-M4U4o0FZF-49" value="1" style="ellipse;whiteSpace=wrap;html=1;aspect=fixed;" vertex="1" parent="qhTGVoRqfC-M4U4o0FZF-4">
          <mxGeometry x="185" y="410" width="65" height="65" as="geometry" />
        </mxCell>
        <mxCell id="qhTGVoRqfC-M4U4o0FZF-57" value="Coloca etiqueta de cumplimiento" style="shape=document;whiteSpace=wrap;html=1;boundedLbl=1;" vertex="1" parent="qhTGVoRqfC-M4U4o0FZF-4">
          <mxGeometry x="65" y="740" width="120" height="80" as="geometry" />
        </mxCell>
        <mxCell id="qhTGVoRqfC-M4U4o0FZF-35" value="NO" style="edgeStyle=orthogonalEdgeStyle;rounded=0;orthogonalLoop=1;jettySize=auto;html=1;exitX=0;exitY=0.5;exitDx=0;exitDy=0;" edge="1" parent="qhTGVoRqfC-M4U4o0FZF-1" source="qhTGVoRqfC-M4U4o0FZF-30" target="qhTGVoRqfC-M4U4o0FZF-34">
          <mxGeometry x="-0.8185" relative="1" as="geometry">
            <Array as="points">
              <mxPoint x="149" y="375" />
            </Array>
            <mxPoint as="offset" />
          </mxGeometry>
        </mxCell>
        <mxCell id="qhTGVoRqfC-M4U4o0FZF-36" style="edgeStyle=orthogonalEdgeStyle;rounded=0;orthogonalLoop=1;jettySize=auto;html=1;exitX=1;exitY=0.5;exitDx=0;exitDy=0;entryX=0;entryY=0.5;entryDx=0;entryDy=0;" edge="1" parent="qhTGVoRqfC-M4U4o0FZF-1" source="qhTGVoRqfC-M4U4o0FZF-24" target="qhTGVoRqfC-M4U4o0FZF-28">
          <mxGeometry relative="1" as="geometry">
            <Array as="points">
              <mxPoint x="280" y="310" />
              <mxPoint x="280" y="200" />
            </Array>
          </mxGeometry>
        </mxCell>
        <mxCell id="qhTGVoRqfC-M4U4o0FZF-45" value="" style="edgeStyle=orthogonalEdgeStyle;rounded=0;orthogonalLoop=1;jettySize=auto;html=1;" edge="1" parent="qhTGVoRqfC-M4U4o0FZF-1" source="qhTGVoRqfC-M4U4o0FZF-39" target="qhTGVoRqfC-M4U4o0FZF-44">
          <mxGeometry relative="1" as="geometry">
            <Array as="points">
              <mxPoint x="560" y="630" />
              <mxPoint x="560" y="200" />
            </Array>
          </mxGeometry>
        </mxCell>
        <mxCell id="qhTGVoRqfC-M4U4o0FZF-46" value="SI" style="edgeLabel;html=1;align=center;verticalAlign=middle;resizable=0;points=[];" vertex="1" connectable="0" parent="qhTGVoRqfC-M4U4o0FZF-45">
          <mxGeometry x="-0.7552" y="-1" relative="1" as="geometry">
            <mxPoint x="-46" y="-1" as="offset" />
          </mxGeometry>
        </mxCell>
        <mxCell id="qhTGVoRqfC-M4U4o0FZF-61" style="edgeStyle=orthogonalEdgeStyle;rounded=0;orthogonalLoop=1;jettySize=auto;html=1;entryX=0.924;entryY=1.061;entryDx=0;entryDy=0;entryPerimeter=0;" edge="1" parent="qhTGVoRqfC-M4U4o0FZF-1" source="qhTGVoRqfC-M4U4o0FZF-59" target="qhTGVoRqfC-M4U4o0FZF-34">
          <mxGeometry relative="1" as="geometry" />
        </mxCell>
        <mxCell id="qhTGVoRqfC-M4U4o0FZF-62" value="NO" style="edgeLabel;html=1;align=center;verticalAlign=middle;resizable=0;points=[];" vertex="1" connectable="0" parent="qhTGVoRqfC-M4U4o0FZF-61">
          <mxGeometry x="-0.8788" y="-2" relative="1" as="geometry">
            <mxPoint as="offset" />
          </mxGeometry>
        </mxCell>
        <mxCell id="qhTGVoRqfC-M4U4o0FZF-67" style="edgeStyle=orthogonalEdgeStyle;rounded=0;orthogonalLoop=1;jettySize=auto;html=1;entryX=1;entryY=0.5;entryDx=0;entryDy=0;" edge="1" parent="qhTGVoRqfC-M4U4o0FZF-1" source="qhTGVoRqfC-M4U4o0FZF-57" target="qhTGVoRqfC-M4U4o0FZF-63">
          <mxGeometry relative="1" as="geometry">
            <Array as="points">
              <mxPoint x="645" y="1010" />
            </Array>
          </mxGeometry>
        </mxCell>
        <mxCell id="qhTGVoRqfC-M4U4o0FZF-58" value="" style="edgeStyle=orthogonalEdgeStyle;rounded=0;orthogonalLoop=1;jettySize=auto;html=1;" edge="1" parent="1" source="qhTGVoRqfC-M4U4o0FZF-55" target="qhTGVoRqfC-M4U4o0FZF-57">
          <mxGeometry relative="1" as="geometry" />
        </mxCell>
        <mxCell id="qhTGVoRqfC-M4U4o0FZF-55" value="Aprueba recepción de mercancía" style="whiteSpace=wrap;html=1;" vertex="1" parent="1">
          <mxGeometry x="625" y="560" width="120" height="60" as="geometry" />
        </mxCell>
        <mxCell id="qhTGVoRqfC-M4U4o0FZF-56" value="SI" style="edgeStyle=orthogonalEdgeStyle;rounded=0;orthogonalLoop=1;jettySize=auto;html=1;" edge="1" parent="1" source="qhTGVoRqfC-M4U4o0FZF-47" target="qhTGVoRqfC-M4U4o0FZF-55">
          <mxGeometry relative="1" as="geometry" />
        </mxCell>
      </root>
    </mxGraphModel>
  </diagram>
</mxfile>
